<?xml version="1.0" encoding="UTF-8"?> <svg xmlns="http://www.w3.org/2000/svg" width="201" height="200" viewBox="0 0 201 200" fill="none"><path d="M136.692 128.218C136.692 136.164 142.702 143.16 150.73 143.756C150.842 143.765 150.952 143.773 151.062 143.778C159.49 144.23 165.648 135.947 163.118 127.998L147.317 78.3633H163.448L173.657 118.706L183.868 78.3633V78.3652H200L181.724 135.78L180.961 138.179C179.074 143.854 175.532 148.786 170.893 152.424C169.495 153.52 168.011 154.513 166.433 155.357C162.106 157.674 157.158 158.992 151.9 158.992C135.028 158.992 121.303 145.444 121.303 128.793L121.37 58.2852H136.692V128.218ZM109.01 130.256C107.631 130.666 106.047 131.057 104.258 131.429C102.466 131.804 100.591 132.126 98.6279 132.397C96.665 132.669 94.6669 132.89 92.6367 133.061C90.6037 133.229 88.6584 133.316 86.8008 133.316C82.3239 133.316 78.3306 132.669 74.8184 131.379C71.3061 130.088 68.3448 128.235 65.9346 125.821C63.5231 123.409 61.6817 120.487 60.4102 117.054C59.1342 113.623 58.498 109.765 58.498 105.483C58.4981 101.132 59.0474 97.2068 60.1494 93.707C61.25 90.2073 62.8362 87.2328 64.9014 84.7861C66.9652 82.3395 69.4969 80.4713 72.4932 79.1787C75.488 77.8891 78.9124 77.2422 82.7695 77.2422C84.9018 77.2422 86.8134 77.4463 88.5029 77.8545C90.1866 78.2627 91.8926 78.8397 93.6143 79.5869V58.2852H109.01V130.256ZM25.9961 76.9121C33.6973 76.9121 39.7838 79.2376 44.2549 83.8857C48.7244 88.5368 50.96 95.375 50.96 104.401C50.96 105.284 50.9251 106.252 50.8564 107.304C50.7878 108.357 50.7176 109.289 50.6504 110.104H15.7822C16.1257 113.225 17.6039 115.703 20.2188 117.535C22.832 119.369 26.3397 120.284 30.7402 120.284C33.5595 120.284 36.3265 120.029 39.0449 119.521C41.7604 119.011 43.978 118.386 45.6982 117.638L47.7607 129.957C46.9364 130.364 45.8362 130.771 44.4609 131.18C43.0842 131.586 41.5552 131.942 39.8701 132.248C38.1849 132.552 36.378 132.808 34.4531 133.012C32.5267 133.215 30.6017 133.315 28.6768 133.315C23.7935 133.315 19.5472 132.605 15.9355 131.18C12.3254 129.754 9.33407 127.802 6.96191 125.323C4.58976 122.846 2.83585 119.911 1.7002 116.518C0.567489 113.127 0 109.462 0 105.523C2.21822e-05 100.775 0.737731 96.6154 2.2168 93.0508C3.69594 89.4875 5.63717 86.5181 8.0459 84.1406C10.4516 81.7662 13.22 79.966 16.3506 78.7441C19.4799 77.5222 22.6943 76.9121 25.9961 76.9121ZM85.1465 90.085C77.8458 90.085 74.1953 94.9798 74.1953 104.767C74.1953 109.456 75.2645 113.227 77.3984 116.082C79.5324 118.937 82.6993 120.365 86.9014 120.365C88.2782 120.365 89.5514 120.314 90.7236 120.213C91.8927 120.112 92.8558 119.993 93.6143 119.856H93.6162V92.2275C92.6501 91.6159 91.3955 91.1046 89.8447 90.6963C88.2972 90.2896 86.7291 90.085 85.1465 90.085ZM26.2021 89.4385C24.4821 89.4385 23.0045 89.7282 21.7666 90.3037C20.5286 90.8808 19.4977 91.6455 18.6719 92.5947C17.8475 93.5469 17.2099 94.6492 16.7627 95.9043C16.314 97.1607 15.9903 98.4331 15.7842 99.7227H36.1045V99.7217C36.0358 98.4321 35.8111 97.1754 35.4355 95.9551C35.0556 94.7334 34.4707 93.6469 33.6816 92.6963C32.8895 91.7471 31.8923 90.9647 30.6895 90.3545C29.4851 89.7428 27.9897 89.4385 26.2021 89.4385ZM124.525 43.3252H105.777L115.15 31.7959L124.525 43.3252Z" fill="#DD1F25"></path><path d="M43.3697 154.943C43.3697 153.344 42.9911 152.055 42.234 151.077C41.3351 149.92 39.9992 149.342 38.2263 149.342C37.3099 149.342 36.313 149.596 35.2358 150.099C34.1586 150.603 33.6178 151.063 33.6178 151.473C33.6178 151.499 33.6719 151.571 33.7801 151.693C33.8882 151.817 33.9467 151.911 33.9555 151.976H34.6921C35.5004 151.558 36.0529 151.279 36.3525 151.139C37.418 150.647 38.159 150.401 38.5756 150.401C39.3239 150.401 39.9948 150.672 40.5853 151.213C41.1334 151.713 41.4082 152.23 41.4082 152.762C41.4082 153.781 40.6262 154.519 39.0609 154.978C37.6036 155.388 36.1508 155.798 34.7038 156.21C33.1472 156.923 32.3682 158.101 32.3682 159.742C32.3682 160.702 32.7263 161.507 33.4424 162.154C34.1586 162.803 35.0107 163.127 36.0017 163.127C36.6346 163.127 37.2762 162.983 37.9252 162.696C38.4411 162.467 38.9571 162.149 39.473 161.748C39.1076 161.782 38.7525 161.81 38.4119 161.835C38.0714 161.861 37.763 161.871 37.4882 161.871C36.5732 161.871 35.8614 161.728 35.3528 161.441C34.6702 161.054 34.3296 160.402 34.3296 159.485C34.3296 158.492 35.0093 157.552 36.3686 156.666C37.5861 155.87 38.6779 155.473 39.6455 155.473C40.3047 155.473 40.7885 155.653 41.0969 156.014C41.4389 156.406 41.6099 157.048 41.6099 157.934C41.6099 157.983 41.6099 158.038 41.6099 158.1C41.6099 158.161 41.6099 158.234 41.6099 158.315C41.6099 158.702 41.5266 159.081 41.36 159.459C41.11 160.017 40.6569 160.669 39.9992 161.415C40.4742 161.571 40.8645 161.921 41.1729 162.462C41.4228 162.905 41.8598 163.127 42.4839 163.127C42.709 163.127 42.9122 162.939 43.0949 162.561C43.2776 162.183 43.3697 161.802 43.3697 161.415V154.943Z" fill="#949494"></path><path d="M52.2238 149.48C52.1068 149.438 51.9943 149.393 51.8876 149.343C51.7546 149.304 51.5456 149.282 51.2635 149.282C50.7227 149.282 50.119 149.53 49.4526 150.028C48.7861 150.524 48.254 150.772 47.8536 150.772C47.5788 150.772 47.209 150.617 46.7427 150.305C46.2765 149.993 45.9812 149.838 45.857 149.838C45.648 149.838 45.4551 149.999 45.2767 150.324C45.0984 150.648 45.0078 150.93 45.0078 151.168V161.827C45.0078 162.228 45.0707 162.5 45.1949 162.639C45.2534 162.706 45.5106 162.869 45.9681 163.133C46.2429 162.869 46.4256 162.657 46.5177 162.494C46.6507 162.263 46.7179 161.98 46.7179 161.644V157.163C46.7179 155.687 47.1461 154.391 48.0041 153.274C48.6121 152.479 49.4394 151.778 50.4888 151.171C51.0632 150.858 51.642 150.542 52.2252 150.223V149.48H52.2238Z" fill="#949494"></path><path d="M62.6615 159.991C61.8693 161.042 60.7965 161.567 59.4401 161.567C58.2577 161.567 57.3164 161.275 56.6178 160.694C56.0697 160.235 55.6853 159.606 55.4689 158.81C55.3272 158.293 55.2555 157.673 55.2555 156.952C55.2555 156.877 55.2555 156.753 55.2555 156.575C55.2555 156.399 55.2555 156.278 55.2555 156.213C55.2555 154.4 55.5391 153.057 56.1077 152.188C56.7435 151.212 57.7943 150.723 59.2647 150.723C60.7 150.723 61.8225 151.256 62.6337 152.322C63.3938 153.324 63.7738 154.621 63.7738 156.212C63.7723 157.748 63.4011 159.008 62.6615 159.991ZM64.3964 151.793C63.7972 150.916 62.9933 150.244 61.9862 149.776C61.2788 149.447 60.6416 149.284 60.0759 149.284C59.5088 149.284 58.7473 149.489 57.7914 149.9C57.3661 150.081 56.9744 150.172 56.6178 150.172C55.9264 150.172 55.4733 149.831 55.257 149.15C55.1328 148.756 55.0699 148.035 55.0699 146.983C55.0699 146.311 55.0568 145.842 55.0334 145.58C54.9574 144.801 54.6914 144.41 54.2339 144.41C54.0424 144.41 53.8772 144.512 53.7399 144.718C53.6025 144.923 53.5338 145.166 53.5338 145.444C53.5089 146.125 53.4841 146.947 53.4592 147.911C53.4344 148.876 53.4095 150.247 53.3847 152.024C53.3598 153.801 53.3467 156.621 53.3467 160.485C53.3467 161.486 53.4008 162.142 53.5089 162.454C53.6595 162.881 53.9869 163.093 54.4955 163.093C55.0772 163.093 55.523 162.966 55.8314 162.712C56.1807 162.416 56.3956 162.262 56.4745 162.251C56.5534 162.239 56.6382 162.232 56.7303 162.232C57.2638 162.434 57.7885 162.627 58.3044 162.813C58.8204 163.001 59.3787 163.092 59.978 163.092C61.6515 163.092 63.0167 162.383 64.0734 160.965C65.0717 159.628 65.5715 158.009 65.5715 156.106C65.5701 154.38 65.1784 152.94 64.3964 151.793Z" fill="#949494"></path><path d="M68.7788 150.391C68.7788 150.079 68.7043 149.802 68.5552 149.56C68.4061 149.319 68.2 149.198 67.9355 149.198C67.5131 149.198 67.2427 149.451 67.1228 149.959C67.003 150.47 66.943 151.441 66.943 152.876C66.943 153.377 66.943 153.901 66.943 154.446C66.943 154.991 66.943 155.564 66.943 156.163C66.943 156.663 66.943 157.307 66.943 158.094C66.943 158.882 66.943 159.42 66.943 159.707C66.943 161.988 67.2427 163.129 67.8419 163.129C68.0641 163.129 68.2746 162.986 68.4763 162.703C68.678 162.421 68.7788 162.099 68.7788 161.737V150.391V150.391ZM68.8621 145.906C68.9484 145.728 68.9922 145.538 68.9922 145.331C68.9922 144.971 68.868 144.692 68.6224 144.495C68.4076 144.346 68.1854 144.274 67.9545 144.274C67.6329 144.274 67.3596 144.386 67.133 144.611C66.9065 144.838 66.7939 145.115 66.7939 145.442C66.7939 145.829 66.943 146.128 67.2383 146.341C67.4517 146.464 67.6621 146.526 67.8682 146.526C68.0816 146.526 68.2877 146.464 68.485 146.341C68.6502 146.226 68.7759 146.082 68.8621 145.906Z" fill="#949494"></path><path d="M78.0923 155.979C76.7608 155.477 75.4278 154.978 74.0963 154.477C72.6654 153.919 71.9492 153.188 71.9492 152.285C71.9492 151.875 72.2035 151.423 72.7107 150.931C73.3187 150.35 74.0305 150.059 74.8461 150.059C75.2787 150.059 75.7874 150.174 76.3691 150.403C76.8938 150.61 77.496 150.851 78.18 151.129C78.2297 151.129 78.3262 151.089 78.4665 151.006C78.5249 150.975 78.579 150.957 78.6287 150.957V150.243C78.0046 149.792 77.4565 149.5 76.9859 149.37C76.5152 149.241 75.8005 149.173 74.8446 149.173C73.4137 149.173 72.2751 149.486 71.4303 150.108C70.5855 150.732 70.1631 151.545 70.1631 152.544C70.1631 153.742 70.8954 154.711 72.3613 155.45C73.7177 155.975 75.0785 156.497 76.4436 157.014C77.9008 157.628 78.6287 158.396 78.6287 159.314C78.6287 159.84 78.3247 160.372 77.7167 160.914C77.0502 161.504 76.2975 161.8 75.457 161.8C74.925 161.8 74.3214 161.646 73.6476 161.333C72.2649 160.694 71.5165 160.372 71.3996 160.372C71.1087 160.372 70.9129 160.456 70.8135 160.619C70.7638 160.702 70.7258 160.799 70.701 160.914C71.2257 161.646 71.9462 162.191 72.8612 162.552C73.6607 162.872 74.5596 163.032 75.5579 163.032C76.9318 163.032 78.0572 162.696 78.9357 162.022C79.8141 161.35 80.2526 160.447 80.2526 159.314C80.2526 157.87 79.5334 156.758 78.0923 155.979Z" fill="#949494"></path><path d="M90.766 159.646C90.0001 160.976 88.8732 161.641 87.3824 161.641C86.3578 161.641 85.4516 161.178 84.6609 160.249C83.7459 159.183 83.287 157.755 83.287 155.966C83.287 154.496 83.6612 153.241 84.411 152.2C85.2178 151.075 86.2789 150.513 87.5943 150.513C88.9595 150.513 90.0045 151.064 90.7295 152.163C91.3624 153.124 91.6781 154.366 91.6781 155.892C91.6781 157.343 91.374 158.597 90.766 159.646ZM92.1282 151.596C91.4617 150.694 90.5716 150.016 89.4564 149.566C88.7066 149.262 88.0445 149.11 87.4716 149.11C86.0553 149.11 84.8611 149.513 83.8877 150.318C83.0634 150.999 82.4349 151.916 82.0022 153.075C81.6441 154.034 81.4658 155.035 81.4658 156.078C81.4658 157.843 81.8941 159.314 82.752 160.497C83.4098 161.409 84.2882 162.093 85.3858 162.553C86.1853 162.889 86.922 163.058 87.5958 163.058C88.9697 163.058 90.1346 162.665 91.092 161.876C91.8915 161.221 92.5068 160.322 92.9409 159.181C93.299 158.231 93.4773 157.257 93.4773 156.264C93.4758 154.366 93.0271 152.811 92.1282 151.596Z" fill="#949494"></path><path d="M100.545 144.653C100.394 144.587 100.216 144.555 100.008 144.555C99.0847 144.555 98.3846 144.847 97.9096 145.428C97.5939 145.822 97.3513 146.429 97.1861 147.25C96.9859 148.243 96.8733 148.773 96.8485 148.838C96.698 149.174 96.2405 149.619 95.4746 150.168C95.175 150.38 95.0244 150.591 95.0244 150.796C95.0244 151.034 95.1998 151.281 95.5491 151.536C96.0242 151.879 96.3399 152.156 96.4977 152.36C96.8383 152.819 97.0093 153.426 97.0093 154.182V162.232C97.0093 162.765 97.1803 163.086 97.5208 163.191C97.6217 163.217 97.7591 163.257 97.933 163.315C98.199 162.986 98.389 162.673 98.5016 162.373C98.6141 162.074 98.6697 161.732 98.6697 161.346V153.321C98.6697 152.86 98.8904 152.462 99.3318 152.126C100.082 151.545 100.58 151.1 100.83 150.796C100.364 150.395 99.9018 149.992 99.4443 149.59C98.9284 149.131 98.6697 148.662 98.6697 148.186C98.6697 147.663 98.8831 147.201 99.3069 146.809C100.355 145.823 100.918 145.188 100.992 144.901C100.885 144.842 100.735 144.76 100.545 144.653Z" fill="#949494"></path><path d="M107.682 148.998C107.199 148.792 106.846 148.525 106.62 148.19C106.396 147.86 106.269 147.175 106.238 146.136C106.209 145.097 105.937 144.578 105.42 144.578C105.087 144.578 104.859 144.8 104.733 145.243C104.65 145.539 104.609 145.966 104.609 146.524V147.091C104.559 147.574 104.337 148.046 103.947 148.505C103.597 148.916 103.201 149.372 102.76 149.871C103.184 150.33 103.609 150.787 104.033 151.237C104.416 151.689 104.609 152.11 104.609 152.505V159.841C104.609 160.727 104.832 161.465 105.282 162.057C105.807 162.747 106.573 163.09 107.58 163.09C108.13 163.09 108.432 163.065 108.491 163.016C108.59 162.804 108.691 162.585 108.79 162.364C107.7 161.51 107.063 160.978 106.88 160.764C106.539 160.371 106.335 159.85 106.268 159.202C106.243 158.947 106.231 157.844 106.231 155.89C106.231 153.684 106.368 152.236 106.643 151.545C106.8 151.144 107.155 150.865 107.704 150.715C108.254 150.564 108.687 150.2 109.004 149.624C108.839 149.519 108.399 149.31 107.682 148.998Z" fill="#949494"></path><path d="M16.2113 153.896C15.9541 153.089 15.5726 152.383 15.08 151.802C14.586 151.215 13.9692 150.75 13.2472 150.423C12.5266 150.095 11.6935 149.931 10.7727 149.931C9.93081 149.931 9.19123 150.05 8.57444 150.287C8.08041 150.476 7.68578 150.661 7.40223 150.838V144.264L5.679 144.252L5.58691 144.27V162.445L5.66292 162.473C6.13502 162.634 6.74743 162.79 7.48408 162.934C8.21634 163.08 9.16054 163.152 10.286 163.152C11.2229 163.152 12.0852 163.001 12.8511 162.701C13.617 162.401 14.2864 161.958 14.8433 161.386C15.3958 160.817 15.8299 160.116 16.1353 159.302C16.4393 158.49 16.5943 157.562 16.5943 156.544C16.5943 155.59 16.4656 154.698 16.2113 153.896ZM9.57856 151.683C9.91327 151.613 10.2655 151.578 10.628 151.578C11.3851 151.578 12.0268 151.712 12.5369 151.973C13.044 152.236 13.4591 152.592 13.7748 153.032C14.0905 153.478 14.3229 154.006 14.4632 154.605C14.6065 155.212 14.6796 155.863 14.6796 156.541C14.6796 158.138 14.2718 159.38 13.4679 160.228C12.664 161.076 11.5853 161.506 10.2611 161.506C9.49086 161.506 8.86091 161.47 8.38881 161.397C7.96787 161.335 7.63755 161.267 7.40223 161.197V152.627C7.53377 152.53 7.69455 152.425 7.89333 152.308C8.10965 152.183 8.3625 152.063 8.64459 151.955C8.93399 151.845 9.24824 151.753 9.57856 151.683Z" fill="#949699"></path><path d="M25.6148 150.194L25.5943 150.284C25.3546 151.382 25.1325 152.354 24.9147 153.253C24.6969 154.154 24.4645 155.056 24.2263 155.93C23.9822 156.819 23.722 157.703 23.4502 158.559C23.2017 159.348 22.9079 160.208 22.582 161.114C22.1333 160.238 21.7109 159.333 21.325 158.425C20.9099 157.445 20.5211 156.467 20.1703 155.518C19.8152 154.55 19.5009 153.623 19.2349 152.767C18.9616 151.887 18.7321 151.051 18.5553 150.284L18.5348 150.194H16.6128L16.6464 150.336C16.9036 151.38 17.2164 152.455 17.5745 153.534C17.9326 154.613 18.3316 155.708 18.7628 156.787C19.194 157.866 19.6646 158.948 20.1616 160.003C20.6527 161.049 21.1642 162.064 21.6802 163.022C21.4682 163.554 21.2475 164.002 21.0254 164.349C20.7988 164.704 20.5387 164.999 20.2566 165.224C19.9774 165.444 19.6573 165.604 19.3094 165.694C18.9557 165.788 18.5509 165.837 18.1051 165.837C17.7952 165.837 17.4897 165.793 17.1974 165.707C16.7926 165.589 16.7019 165.535 16.6829 165.521L16.5412 165.421L16.1831 166.888L16.167 166.969L16.2401 167.011C16.3307 167.063 16.5368 167.135 16.8905 167.237C17.2354 167.337 17.6213 167.388 18.0378 167.388C18.7613 167.388 19.403 167.304 19.9438 167.141C20.4875 166.978 20.9698 166.72 21.3791 166.373C21.7854 166.034 22.1596 165.591 22.4928 165.059C22.8188 164.54 23.1418 163.905 23.4531 163.179C24.2336 161.363 24.9629 159.329 25.6207 157.135C26.2828 154.928 26.8835 152.64 27.4082 150.333L27.4404 150.194H25.6148V150.194Z" fill="#949699"></path></svg> 